<svg width="73.000000" height="23.000000" viewBox="0 0 73 23" fill="none" xmlns="http://www.w3.org/2000/svg" xmlns:xlink="http://www.w3.org/1999/xlink">
	<desc>
			Created with Pixso.
	</desc>
	<defs/>
	<rect id="Прямоугольник 5" x="0.500000" y="0.500000" rx="9.000000" width="72.000000" height="22.000000" fill="#CCCACC" fill-opacity="1.000000"/>
	<rect id="Прямоугольник 5" x="0.500000" y="0.500000" rx="9.000000" width="72.000000" height="22.000000" stroke="#000000" stroke-opacity="1.000000" stroke-width="1.000000"/>
	<path id="Автор" d="M23.9878 13.559L19.8179 13.559L18.8813 16.1566L17.5278 16.1566L21.3286 6.20352L22.4771 6.20352L26.2847 16.1566L24.938 16.1566L23.9878 13.559ZM20.2144 12.4789L23.5981 12.4789L21.9028 7.82364L20.2144 12.4789ZM27.5425 16.1566L27.5425 8.76016L30.4272 8.76016Q31.9038 8.76016 32.6934 9.27627Q33.4829 9.79239 33.4829 10.7904Q33.4829 11.3031 33.1753 11.7167Q32.8677 12.1303 32.2661 12.349Q32.936 12.5063 33.3428 12.9643Q33.7495 13.4223 33.7495 14.058Q33.7495 15.0766 33.001 15.6166Q32.2524 16.1566 30.8853 16.1566L27.5425 16.1566ZM28.8071 12.9096L28.8071 15.1381L30.8989 15.1381Q31.6919 15.1381 32.085 14.8441Q32.478 14.5502 32.478 14.017Q32.478 12.9096 30.8511 12.9096L28.8071 12.9096ZM28.8071 11.8979L30.4409 11.8979Q32.2183 11.8979 32.2183 10.8588Q32.2183 9.81973 30.5366 9.78555L28.8071 9.78555L28.8071 11.8979ZM40.8384 9.78555L38.3569 9.78555L38.3569 16.1566L37.0923 16.1566L37.0923 9.78555L34.6587 9.78555L34.6587 8.76016L40.8384 8.76016L40.8384 9.78555ZM41.4468 12.39Q41.4468 11.3031 41.874 10.435Q42.3013 9.5668 43.0635 9.09512Q43.8257 8.62344 44.8032 8.62344Q46.314 8.62344 47.2471 9.66934Q48.1802 10.7152 48.1802 12.4516L48.1802 12.5404Q48.1802 13.6205 47.7666 14.4784Q47.353 15.3363 46.584 15.8148Q45.8149 16.2934 44.8169 16.2934Q43.313 16.2934 42.3799 15.2475Q41.4468 14.2016 41.4468 12.4789L41.4468 12.39ZM42.7183 12.5404Q42.7183 13.7709 43.2891 14.516Q43.8599 15.2611 44.8169 15.2611Q45.7808 15.2611 46.3481 14.5058Q46.9155 13.7504 46.9155 12.39Q46.9155 11.1732 46.3379 10.4179Q45.7603 9.6625 44.8032 9.6625Q43.8667 9.6625 43.2925 10.4076Q42.7183 11.1527 42.7183 12.5404ZM56.0142 12.5404Q56.0142 14.2289 55.2417 15.2611Q54.4692 16.2934 53.1499 16.2934Q51.8032 16.2934 51.0308 15.4389L51.0308 19.0004L49.7661 19.0004L49.7661 8.76016L50.9214 8.76016L50.9829 9.58047Q51.7554 8.62344 53.1294 8.62344Q54.4624 8.62344 55.2383 9.62832Q56.0142 10.6332 56.0142 12.4242L56.0142 12.5404ZM54.7495 12.3969Q54.7495 11.1459 54.2163 10.4213Q53.6831 9.69668 52.7534 9.69668Q51.605 9.69668 51.0308 10.7152L51.0308 14.2494Q51.5981 15.2611 52.7671 15.2611Q53.6763 15.2611 54.2129 14.5399Q54.7495 13.8188 54.7495 12.3969Z" fill="#4E4A3E" fill-opacity="1.000000" fill-rule="evenodd"/>
</svg>
