<svg width="101.544800" height="22.619385" viewBox="0 0 101.545 22.6194" fill="none" xmlns="http://www.w3.org/2000/svg" xmlns:xlink="http://www.w3.org/1999/xlink">
	<desc>
			Created with Pixso.
	</desc>
	<defs/>
	<rect id="Прямоугольник 4" rx="9.000000" width="101.544769" height="22.619301" fill="#4E4A3E" fill-opacity="1.000000"/>
	<path id="посмотреть" d="M17.8072 16.3888L16.5425 16.3888L16.5425 10.0382L13.1382 10.0382L13.1382 16.3888L11.8668 16.3888L11.8668 8.99234L17.8072 8.99234L17.8072 16.3888ZM19.5025 12.6222Q19.5025 11.5353 19.9297 10.6671Q20.357 9.79898 21.1192 9.3273Q21.8814 8.85562 22.8589 8.85562Q24.3697 8.85562 25.3028 9.90152Q26.2359 10.9474 26.2359 12.6837L26.2359 12.7726Q26.2359 13.8527 25.8223 14.7106Q25.4088 15.5685 24.6397 16.047Q23.8707 16.5255 22.8726 16.5255Q21.3687 16.5255 20.4356 15.4796Q19.5025 14.4337 19.5025 12.7111L19.5025 12.6222ZM20.774 12.7726Q20.774 14.0031 21.3448 14.7482Q21.9156 15.4933 22.8726 15.4933Q23.8365 15.4933 24.4039 14.7379Q24.9713 13.9826 24.9713 12.6222Q24.9713 11.4054 24.3936 10.6501Q23.816 9.89468 22.8589 9.89468Q21.9224 9.89468 21.3482 10.6398Q20.774 11.3849 20.774 12.7726ZM30.7886 15.4933Q31.4654 15.4933 31.9713 15.0832Q32.4771 14.673 32.5318 14.0578L33.7281 14.0578Q33.6939 14.6935 33.2906 15.2677Q32.8873 15.8419 32.2139 16.1837Q31.5406 16.5255 30.7886 16.5255Q29.2779 16.5255 28.3858 15.5172Q27.4937 14.5089 27.4937 12.7589L27.4937 12.547Q27.4937 11.4669 27.8902 10.6261Q28.2867 9.78531 29.0284 9.32046Q29.7701 8.85562 30.7818 8.85562Q32.0259 8.85562 32.8497 9.60073Q33.6734 10.3459 33.7281 11.5353L32.5318 11.5353Q32.4771 10.8175 31.9883 10.3561Q31.4996 9.89468 30.7818 9.89468Q29.8179 9.89468 29.2881 10.5885Q28.7584 11.2824 28.7584 12.5949L28.7584 12.8341Q28.7584 14.1125 29.2847 14.8029Q29.8111 15.4933 30.7886 15.4933ZM39.4088 14.714L41.9244 8.99234L43.5035 8.99234L43.5035 16.3888L42.2388 16.3888L42.2388 11.0089L39.8463 16.3888L38.9713 16.3888L36.5308 10.8927L36.5308 16.3888L35.2662 16.3888L35.2662 8.99234L36.9068 8.99234L39.4088 14.714ZM45.1988 12.6222Q45.1988 11.5353 45.626 10.6671Q46.0533 9.79898 46.8155 9.3273Q47.5777 8.85562 48.5552 8.85562Q50.066 8.85562 50.9991 9.90152Q51.9322 10.9474 51.9322 12.6837L51.9322 12.7726Q51.9322 13.8527 51.5186 14.7106Q51.105 15.5685 50.336 16.047Q49.567 16.5255 48.5689 16.5255Q47.065 16.5255 46.1319 15.4796Q45.1988 14.4337 45.1988 12.7111L45.1988 12.6222ZM46.4703 12.7726Q46.4703 14.0031 47.0411 14.7482Q47.6119 15.4933 48.5689 15.4933Q49.5328 15.4933 50.1002 14.7379Q50.6675 13.9826 50.6675 12.6222Q50.6675 11.4054 50.0899 10.6501Q49.5123 9.89468 48.5552 9.89468Q47.6187 9.89468 47.0445 10.6398Q46.4703 11.3849 46.4703 12.7726ZM58.8638 10.0177L56.3824 10.0177L56.3824 16.3888L55.1177 16.3888L55.1177 10.0177L52.6841 10.0177L52.6841 8.99234L58.8638 8.99234L58.8638 10.0177ZM66.3423 12.7726Q66.3423 14.4611 65.5699 15.4933Q64.7974 16.5255 63.4781 16.5255Q62.1314 16.5255 61.3589 15.671L61.3589 19.2326L60.0943 19.2326L60.0943 8.99234L61.2496 8.99234L61.3111 9.81265Q62.0836 8.85562 63.4576 8.85562Q64.7906 8.85562 65.5665 9.8605Q66.3423 10.8654 66.3423 12.6564L66.3423 12.7726ZM65.0777 12.6291Q65.0777 11.3781 64.5445 10.6535Q64.0113 9.92886 63.0816 9.92886Q61.9332 9.92886 61.3589 10.9474L61.3589 14.4816Q61.9263 15.4933 63.0953 15.4933Q64.0045 15.4933 64.5411 14.7721Q65.0777 14.0509 65.0777 12.6291ZM71.0181 16.5255Q69.5142 16.5255 68.5709 15.5377Q67.6275 14.55 67.6275 12.8957L67.6275 12.6632Q67.6275 11.5626 68.0479 10.6979Q68.4683 9.83316 69.2237 9.34439Q69.9791 8.85562 70.8609 8.85562Q72.3033 8.85562 73.1031 9.80581Q73.9029 10.756 73.9029 12.5265L73.9029 13.0529L68.8922 13.0529Q68.9195 14.1466 69.5313 14.82Q70.1431 15.4933 71.0865 15.4933Q71.7564 15.4933 72.2213 15.2199Q72.6861 14.9464 73.0347 14.4953L73.8072 15.0968Q72.8775 16.5255 71.0181 16.5255ZM70.8609 9.89468Q70.0953 9.89468 69.5757 10.4518Q69.0562 11.0089 68.9332 12.0138L72.6382 12.0138L72.6382 11.9181Q72.5836 10.9543 72.1187 10.4245Q71.6539 9.89468 70.8609 9.89468ZM80.7867 10.0177L78.3052 10.0177L78.3052 16.3888L77.0406 16.3888L77.0406 10.0177L74.607 10.0177L74.607 8.99234L80.7867 8.99234L80.7867 10.0177ZM83.398 11.5421L85.3189 11.5421Q86.5767 11.5558 87.3082 12.1984Q88.0396 12.841 88.0396 13.9416Q88.0396 15.049 87.2877 15.7189Q86.5357 16.3888 85.2642 16.3888L82.1334 16.3888L82.1334 8.99234L83.398 8.99234L83.398 11.5421ZM83.398 12.5744L83.398 15.3566L85.2779 15.3566Q85.9888 15.3566 86.3785 14.9909Q86.7681 14.6251 86.7681 13.9894Q86.7681 13.3742 86.3887 12.9811Q86.0093 12.588 85.3257 12.5744L83.398 12.5744Z" fill="#FBFBFF" fill-opacity="1.000000" fill-rule="evenodd"/>
</svg>
