<svg width="86.736145" height="22.619385" viewBox="0 0 86.7361 22.6194" fill="none" xmlns="http://www.w3.org/2000/svg" xmlns:xlink="http://www.w3.org/1999/xlink">
	<desc>
			Created with Pixso.
	</desc>
	<defs/>
	<rect id="Прямоугольник 5" x="0.500000" y="0.500000" rx="9.000000" width="85.736160" height="21.619301" fill="#CCCACC" fill-opacity="1.000000"/>
	<rect id="Прямоугольник 5" x="0.500000" y="0.500000" rx="9.000000" width="85.736160" height="21.619301" stroke="#000000" stroke-opacity="1.000000" stroke-width="1.000000"/>
	<path id="профиль" d="M21.7771 16.3888L20.5125 16.3888L20.5125 10.0382L17.1082 10.0382L17.1082 16.3888L15.8367 16.3888L15.8367 8.99234L21.7771 8.99234L21.7771 16.3888ZM30.0554 12.7726Q30.0554 14.4611 29.283 15.4933Q28.5105 16.5255 27.1912 16.5255Q25.8445 16.5255 25.072 15.671L25.072 19.2326L23.8074 19.2326L23.8074 8.99234L24.9626 8.99234L25.0242 9.81265Q25.7966 8.85562 27.1707 8.85562Q28.5037 8.85562 29.2795 9.8605Q30.0554 10.8654 30.0554 12.6564L30.0554 12.7726ZM28.7908 12.6291Q28.7908 11.3781 28.2576 10.6535Q27.7244 9.92886 26.7947 9.92886Q25.6462 9.92886 25.072 10.9474L25.072 14.4816Q25.6394 15.4933 26.8083 15.4933Q27.7175 15.4933 28.2542 14.7721Q28.7908 14.0509 28.7908 12.6291ZM31.3269 12.6222Q31.3269 11.5353 31.7542 10.6671Q32.1814 9.79898 32.9436 9.3273Q33.7058 8.85562 34.6833 8.85562Q36.1941 8.85562 37.1272 9.90152Q38.0603 10.9474 38.0603 12.6837L38.0603 12.7726Q38.0603 13.8527 37.6467 14.7106Q37.2332 15.5685 36.4641 16.047Q35.6951 16.5255 34.697 16.5255Q33.1931 16.5255 32.26 15.4796Q31.3269 14.4337 31.3269 12.7111L31.3269 12.6222ZM32.5984 12.7726Q32.5984 14.0031 33.1692 14.7482Q33.74 15.4933 34.697 15.4933Q35.6609 15.4933 36.2283 14.7379Q36.7957 13.9826 36.7957 12.6222Q36.7957 11.4054 36.218 10.6501Q35.6404 9.89468 34.6833 9.89468Q33.7468 9.89468 33.1726 10.6398Q32.5984 11.3849 32.5984 12.7726ZM39.3728 12.8273Q39.3728 10.9748 40.0906 9.91519Q40.8083 8.85562 42.0593 8.85562Q42.6404 8.85562 43.0779 9.05386L43.0779 5.88882L44.3425 5.88882L44.3425 9.09488Q44.821 8.85562 45.4636 8.85562Q46.7214 8.85562 47.4392 9.91519Q48.157 10.9748 48.157 12.9709Q48.157 14.6046 47.4426 15.5685Q46.7283 16.5324 45.4773 16.5324Q44.8142 16.5324 44.3425 16.3136L44.3425 19.2326L43.0779 19.2326L43.0779 16.3341Q42.6267 16.5324 42.0457 16.5324Q40.8015 16.5324 40.0872 15.5685Q39.3728 14.6046 39.3728 12.9298L39.3728 12.8273ZM46.8923 12.8273Q46.8923 11.4328 46.4138 10.6637Q45.9353 9.89468 45.0945 9.89468Q44.6638 9.89468 44.3425 10.0314L44.3425 15.3839Q44.6501 15.5001 45.1082 15.5001Q45.9558 15.5001 46.4241 14.8439Q46.8923 14.1876 46.8923 12.8273ZM40.6375 12.9709Q40.6375 14.215 41.0818 14.8576Q41.5261 15.5001 42.3601 15.5001Q42.7566 15.5001 43.0779 15.3771L43.0779 10.0109Q42.7908 9.89468 42.3738 9.89468Q41.5398 9.89468 41.0886 10.6398Q40.6375 11.3849 40.6375 12.9709ZM54.5828 8.99234L55.8474 8.99234L55.8474 16.3888L54.5828 16.3888L54.5828 10.9953L51.1716 16.3888L49.907 16.3888L49.907 8.99234L51.1716 8.99234L51.1716 14.3927L54.5828 8.99234ZM63.9412 8.99234L63.9412 16.3888L62.6697 16.3888L62.6697 10.0382L60.1541 10.0382L60.0037 12.8068Q59.8806 14.714 59.3645 15.5343Q58.8484 16.3546 57.7273 16.3888L57.2214 16.3888L57.2214 15.2746L57.5837 15.2472Q58.199 15.1789 58.4656 14.5363Q58.7322 13.8937 58.8074 12.1574L58.9441 8.99234L63.9412 8.99234ZM67.3523 11.5421L69.2732 11.5421Q70.531 11.5558 71.2625 12.1984Q71.9939 12.841 71.9939 13.9416Q71.9939 15.049 71.2419 15.7189Q70.49 16.3888 69.2185 16.3888L66.0876 16.3888L66.0876 8.99234L67.3523 8.99234L67.3523 11.5421ZM67.3523 12.5744L67.3523 15.3566L69.2322 15.3566Q69.9431 15.3566 70.3328 14.9909Q70.7224 14.6251 70.7224 13.9894Q70.7224 13.3742 70.343 12.9811Q69.9636 12.588 69.28 12.5744L67.3523 12.5744Z" fill="#4E4A3E" fill-opacity="1.000000" fill-rule="evenodd"/>
</svg>
